<?xml version="1.0" encoding="utf-8"?>
<!-- Generator: Adobe Illustrator 16.0.0, SVG Export Plug-In . SVG Version: 6.00 Build 0)  -->
<!DOCTYPE svg PUBLIC "-//W3C//DTD SVG 1.1//EN" "http://www.w3.org/Graphics/SVG/1.1/DTD/svg11.dtd">
<svg version="1.1" id="Layer_1" xmlns="http://www.w3.org/2000/svg" xmlns:xlink="http://www.w3.org/1999/xlink" x="0px" y="0px"
	 width="1200px" height="500px" viewBox="0 0 1200 500" enable-background="new 0 0 1200 500" xml:space="preserve">
<polyline opacity="0.7" fill="#37876F" stroke="#37876F" stroke-miterlimit="10" points="196.053,439.911 383.501,312.14 
	332.283,92.839 144.125,221.079 "/>
<polyline opacity="0.7" fill="#37876F" stroke="#37876F" stroke-miterlimit="10" points="195.834,439.911 8.387,312.14 
	59.606,92.839 247.764,221.079 "/>
<polyline opacity="0.7" fill="#37876F" stroke="#37876F" stroke-miterlimit="10" points="196.657,438.368 326.851,252.596 
	201.431,65.549 70.742,252.012 "/>
<g>
	<rect x="-66" y="192.548" fill="none" width="1262" height="183.359"/>
	<path fill="#FFFFFF" d="M489.4,203.958v12.225h-37.49v95.355h-13.04v-95.355h-37.49v-12.225H489.4z"/>
	<path fill="#FFFFFF" d="M525.913,313.168c-7.717,0-14.588-1.684-20.62-5.053c-6.031-3.367-10.732-8.232-14.1-14.59
		c-3.369-6.355-5.053-13.936-5.053-22.738c0-8.801,1.684-16.381,5.053-22.738c3.367-6.357,7.987-11.219,13.855-14.589
		c5.868-3.367,12.551-5.053,20.049-5.053c7.605,0,14.1,1.63,19.479,4.89s9.479,7.689,12.306,13.285
		c2.825,5.597,4.238,11.873,4.238,18.826c0,1.85-0.056,3.533-0.163,5.053c-0.109,1.523-0.272,2.881-0.489,4.076h-65.852v-11.574
		h60.147l-6.683,1.305c0-7.824-2.147-13.855-6.438-18.093c-4.294-4.237-9.917-6.356-16.871-6.356c-5.326,0-9.917,1.223-13.773,3.667
		c-3.858,2.445-6.846,5.978-8.965,10.595c-2.119,4.619-3.179,10.188-3.179,16.707c0,6.414,1.085,11.955,3.26,16.627
		c2.172,4.674,5.241,8.23,9.209,10.676c3.965,2.445,8.72,3.668,14.262,3.668c5.975,0,10.84-1.141,14.588-3.424
		c3.749-2.281,6.765-5.379,9.047-9.291l10.269,6.031c-2.066,3.695-4.702,6.902-7.906,9.617c-3.207,2.717-6.956,4.809-11.247,6.275
		C536.044,312.434,531.236,313.168,525.913,313.168z"/>
	<path fill="#FFFFFF" d="M585.896,311.537v-81.5h10.595l1.793,13.366c2.282-4.997,5.624-8.746,10.024-11.247
		c4.401-2.499,9.752-3.749,16.056-3.749c1.411,0,2.96,0.109,4.646,0.326c1.684,0.219,3.122,0.651,4.319,1.304l-2.282,11.899
		c-1.196-0.434-2.501-0.76-3.911-0.979c-1.414-0.217-3.424-0.326-6.031-0.326c-3.37,0-6.765,0.979-10.188,2.935
		s-6.275,4.918-8.558,8.882c-2.282,3.969-3.423,8.994-3.423,15.078v44.01H585.896z"/>
	<path fill="#FFFFFF" d="M652.398,311.537v-81.5h10.595l1.793,13.366c2.282-4.997,5.624-8.746,10.024-11.247
		c4.401-2.499,9.752-3.749,16.056-3.749c1.411,0,2.96,0.109,4.646,0.326c1.684,0.219,3.122,0.651,4.319,1.304l-2.282,11.899
		c-1.196-0.434-2.501-0.76-3.911-0.979c-1.414-0.217-3.424-0.326-6.031-0.326c-3.37,0-6.765,0.979-10.188,2.935
		s-6.275,4.918-8.558,8.882c-2.282,3.969-3.423,8.994-3.423,15.078v44.01H652.398z"/>
	<path fill="#FFFFFF" d="M764.216,258.889c0-6.084-1.63-10.784-4.89-14.099c-3.26-3.313-7.88-4.972-13.855-4.972
		c-5.651,0-10.432,1.223-14.344,3.667c-3.912,2.445-6.793,6.385-8.639,11.818l-10.596-6.52c2.173-6.085,6.194-11.003,12.063-14.752
		s13.146-5.623,21.842-5.623c5.868,0,11.191,1.006,15.974,3.016c4.781,2.012,8.558,5.053,11.329,9.128
		c2.771,4.075,4.156,9.318,4.156,15.73v39.445c0,3.912,2.063,5.867,6.194,5.867c2.063,0,4.075-0.27,6.03-0.814l-0.651,10.27
		c-2.175,1.084-5,1.629-8.477,1.629c-3.152,0-5.978-0.598-8.476-1.793c-2.501-1.193-4.457-3.016-5.868-5.459
		c-1.413-2.445-2.119-5.516-2.119-9.211v-1.629l3.261,0.488c-1.305,4.238-3.533,7.689-6.684,10.352
		c-3.153,2.664-6.683,4.619-10.595,5.867s-7.771,1.875-11.573,1.875c-4.783,0-9.237-0.814-13.366-2.445
		c-4.131-1.631-7.416-4.1-9.861-7.416c-2.445-3.314-3.667-7.418-3.667-12.307c0-6.084,2.037-11.109,6.112-15.078
		c4.075-3.965,9.752-6.654,17.033-8.068l32.274-6.357v10.758l-26.243,5.379c-5.325,1.088-9.291,2.609-11.899,4.564
		c-2.607,1.957-3.912,4.674-3.912,8.15c0,3.369,1.33,6.113,3.994,8.23c2.661,2.119,6.438,3.18,11.328,3.18
		c3.15,0,6.166-0.408,9.047-1.223c2.878-0.814,5.46-2.063,7.742-3.75c2.282-1.682,4.075-3.801,5.379-6.355
		c1.304-2.553,1.956-5.568,1.956-9.047V258.889z"/>
	<path fill="#FFFFFF" d="M842.618,228.408c5.648,0,10.62,0.871,14.914,2.607c4.292,1.74,8.013,4.238,11.166,7.498
		c3.15,3.261,5.704,7.119,7.66,11.573l-12.388,5.869c-1.739-5.216-4.375-9.21-7.905-11.981c-3.532-2.771-8.125-4.156-13.773-4.156
		c-5.436,0-10.106,1.223-14.019,3.667c-3.912,2.445-6.901,5.978-8.965,10.595c-2.065,4.619-3.097,10.188-3.097,16.707
		c0,6.414,1.031,11.955,3.097,16.627c2.063,4.674,5.053,8.23,8.965,10.676s8.583,3.668,14.019,3.668
		c4.237,0,7.905-0.652,11.002-1.957c3.098-1.303,5.649-3.203,7.661-5.705c2.01-2.498,3.396-5.541,4.156-9.127l12.063,4.238
		c-1.849,5-4.376,9.291-7.579,12.877c-3.207,3.586-7.065,6.332-11.573,8.23c-4.511,1.9-9.646,2.854-15.403,2.854
		c-7.607,0-14.4-1.684-20.375-5.053c-5.978-3.367-10.651-8.232-14.019-14.59c-3.369-6.355-5.053-13.936-5.053-22.738
		c0-8.801,1.684-16.381,5.053-22.738c3.367-6.357,8.041-11.219,14.019-14.589C828.218,230.093,835.011,228.408,842.618,228.408z"/>
	<path fill="#FFFFFF" d="M933.897,228.408c7.714,0,14.532,1.686,20.456,5.053c5.922,3.37,10.567,8.231,13.937,14.589
		c3.367,6.357,5.053,13.937,5.053,22.738c0,8.803-1.686,16.383-5.053,22.738c-3.369,6.357-8.015,11.223-13.937,14.59
		c-5.924,3.369-12.742,5.053-20.456,5.053c-7.607,0-14.4-1.684-20.375-5.053c-5.978-3.367-10.651-8.232-14.019-14.59
		c-3.369-6.355-5.053-13.936-5.053-22.738c0-8.801,1.684-16.381,5.053-22.738c3.367-6.357,8.041-11.219,14.019-14.589
		C919.497,230.093,926.29,228.408,933.897,228.408z M933.897,239.655c-5.542,0-10.27,1.25-14.182,3.749
		c-3.912,2.501-6.928,6.059-9.046,10.676c-2.119,4.619-3.179,10.188-3.179,16.707c0,6.414,1.06,11.955,3.179,16.627
		c2.118,4.674,5.134,8.26,9.046,10.758c3.912,2.5,8.64,3.748,14.182,3.748s10.269-1.248,14.181-3.748
		c3.912-2.498,6.928-6.084,9.047-10.758c2.118-4.672,3.178-10.213,3.178-16.627c0-6.52-1.06-12.088-3.178-16.707
		c-2.119-4.618-5.135-8.175-9.047-10.676C944.166,240.905,939.439,239.655,933.897,239.655z"/>
	<path fill="#FFFFFF" d="M1045.39,230.038v11.247h-59.006v-11.247H1045.39z M1015.724,206.891v82.152
		c0,4.021,1.142,7.01,3.424,8.965c2.281,1.957,5.216,2.936,8.802,2.936c3.15,0,5.868-0.543,8.149-1.631
		c2.282-1.084,4.346-2.553,6.194-4.4l4.564,10.92c-2.501,2.283-5.461,4.076-8.884,5.379c-3.423,1.305-7.363,1.957-11.817,1.957
		c-4.131,0-7.987-0.734-11.573-2.201s-6.438-3.803-8.558-7.008s-3.234-7.418-3.342-12.633v-80.848L1015.724,206.891z"/>
	<path fill="#FFFFFF" d="M1103.254,230.038v11.247h-59.006v-11.247H1103.254z M1073.588,206.891v82.152
		c0,4.021,1.142,7.01,3.424,8.965c2.281,1.957,5.216,2.936,8.802,2.936c3.15,0,5.868-0.543,8.149-1.631
		c2.282-1.084,4.346-2.553,6.194-4.4l4.564,10.92c-2.501,2.283-5.461,4.076-8.884,5.379c-3.423,1.305-7.363,1.957-11.817,1.957
		c-4.131,0-7.987-0.734-11.573-2.201s-6.438-3.803-8.558-7.008s-3.234-7.418-3.342-12.633v-80.848L1073.588,206.891z"/>
	<path fill="#FFFFFF" d="M1170.246,258.889c0-6.084-1.63-10.784-4.89-14.099c-3.26-3.313-7.88-4.972-13.855-4.972
		c-5.651,0-10.432,1.223-14.344,3.667c-3.912,2.445-6.793,6.385-8.639,11.818l-10.596-6.52c2.173-6.085,6.194-11.003,12.063-14.752
		s13.146-5.623,21.842-5.623c5.868,0,11.191,1.006,15.974,3.016c4.781,2.012,8.558,5.053,11.329,9.128
		c2.771,4.075,4.156,9.318,4.156,15.73v39.445c0,3.912,2.063,5.867,6.194,5.867c2.063,0,4.075-0.27,6.03-0.814l-0.651,10.27
		c-2.175,1.084-5,1.629-8.477,1.629c-3.152,0-5.978-0.598-8.476-1.793c-2.501-1.193-4.457-3.016-5.868-5.459
		c-1.413-2.445-2.119-5.516-2.119-9.211v-1.629l3.261,0.488c-1.305,4.238-3.533,7.689-6.684,10.352
		c-3.153,2.664-6.683,4.619-10.595,5.867s-7.771,1.875-11.573,1.875c-4.783,0-9.237-0.814-13.366-2.445
		c-4.131-1.631-7.416-4.1-9.861-7.416c-2.445-3.314-3.667-7.418-3.667-12.307c0-6.084,2.037-11.109,6.112-15.078
		c4.075-3.965,9.752-6.654,17.033-8.068l32.274-6.357v10.758l-26.243,5.379c-5.325,1.088-9.291,2.609-11.899,4.564
		c-2.607,1.957-3.912,4.674-3.912,8.15c0,3.369,1.33,6.113,3.994,8.23c2.661,2.119,6.438,3.18,11.328,3.18
		c3.15,0,6.166-0.408,9.047-1.223c2.878-0.814,5.46-2.063,7.742-3.75c2.282-1.682,4.075-3.801,5.379-6.355
		c1.304-2.553,1.956-5.568,1.956-9.047V258.889z"/>
</g>
<g>
</g>
<g>
</g>
<g>
</g>
<g>
</g>
<g>
</g>
<g>
</g>
<g>
</g>
<g>
</g>
<g>
</g>
<g>
</g>
<g>
</g>
<g>
</g>
<g>
</g>
<g>
</g>
<g>
</g>
</svg>
