<?xml version="1.0" encoding="utf-8"?>
<!-- Generator: Adobe Illustrator 16.0.0, SVG Export Plug-In . SVG Version: 6.00 Build 0)  -->
<!DOCTYPE svg PUBLIC "-//W3C//DTD SVG 1.1//EN" "http://www.w3.org/Graphics/SVG/1.1/DTD/svg11.dtd">
<svg version="1.1" id="Layer_1" xmlns="http://www.w3.org/2000/svg" xmlns:xlink="http://www.w3.org/1999/xlink" x="0px" y="0px"
	 width="960px" height="960px" viewBox="0 0 960 960" enable-background="new 0 0 960 960" xml:space="preserve">
<polyline opacity="0.7" fill="#37876F" stroke="#37876F" stroke-miterlimit="10" points="475.927,664.396 754.15,474.748 
	678.129,149.247 398.851,339.59 "/>
<polyline opacity="0.7" fill="#37876F" stroke="#37876F" stroke-miterlimit="10" points="475.604,664.396 197.38,474.748 
	273.402,149.247 552.681,339.59 "/>
<polyline opacity="0.7" fill="#37876F" stroke="#37876F" stroke-miterlimit="10" points="476.824,662.105 670.066,386.368 
	483.909,108.741 289.932,385.502 "/>
<g>
	<rect y="732.215" fill="none" width="960" height="183.358"/>
	<path fill="#646F76" d="M173.318,743.624v12.225h-37.49v95.355h-13.04v-95.355h-37.49v-12.225H173.318z"/>
	<path fill="#646F76" d="M209.831,852.834c-7.717,0-14.588-1.684-20.62-5.053c-6.031-3.367-10.732-8.231-14.1-14.589
		c-3.369-6.356-5.053-13.937-5.053-22.738s1.684-16.382,5.053-22.738c3.367-6.357,7.987-11.219,13.855-14.589
		c5.868-3.367,12.551-5.053,20.049-5.053c7.605,0,14.1,1.63,19.479,4.89s9.479,7.689,12.306,13.285
		c2.825,5.598,4.238,11.873,4.238,18.826c0,1.849-0.056,3.532-0.163,5.053c-0.109,1.523-0.272,2.881-0.489,4.075h-65.852V802.63
		h60.147l-6.683,1.305c0-7.824-2.147-13.855-6.438-18.094c-4.294-4.237-9.917-6.356-16.871-6.356c-5.326,0-9.917,1.223-13.773,3.667
		c-3.858,2.445-6.846,5.978-8.965,10.596c-2.119,4.619-3.179,10.188-3.179,16.707c0,6.413,1.085,11.955,3.26,16.626
		c2.172,4.674,5.241,8.231,9.209,10.677c3.965,2.444,8.72,3.667,14.262,3.667c5.975,0,10.839-1.141,14.588-3.423
		s6.765-5.379,9.047-9.291l10.269,6.031c-2.066,3.695-4.702,6.902-7.906,9.617c-3.207,2.717-6.956,4.809-11.247,6.275
		C219.962,852.101,215.153,852.834,209.831,852.834z"/>
	<path fill="#646F76" d="M269.814,851.204v-81.5h10.595l1.793,13.366c2.282-4.997,5.624-8.746,10.024-11.247
		c4.401-2.499,9.752-3.749,16.056-3.749c1.411,0,2.959,0.109,4.646,0.326c1.684,0.219,3.123,0.651,4.319,1.304l-2.282,11.899
		c-1.197-0.434-2.501-0.76-3.912-0.979c-1.414-0.217-3.423-0.326-6.031-0.326c-3.37,0-6.765,0.979-10.188,2.935
		c-3.423,1.956-6.276,4.918-8.558,8.883c-2.282,3.969-3.423,8.993-3.423,15.078v44.01H269.814z"/>
	<path fill="#646F76" d="M336.316,851.204v-81.5h10.595l1.793,13.366c2.282-4.997,5.624-8.746,10.024-11.247
		c4.401-2.499,9.752-3.749,16.056-3.749c1.411,0,2.959,0.109,4.646,0.326c1.684,0.219,3.123,0.651,4.319,1.304l-2.282,11.899
		c-1.197-0.434-2.501-0.76-3.912-0.979c-1.414-0.217-3.423-0.326-6.031-0.326c-3.37,0-6.765,0.979-10.188,2.935
		c-3.423,1.956-6.276,4.918-8.558,8.883c-2.282,3.969-3.423,8.993-3.423,15.078v44.01H336.316z"/>
	<path fill="#646F76" d="M448.134,798.555c0-6.084-1.63-10.783-4.89-14.099c-3.26-3.313-7.88-4.972-13.855-4.972
		c-5.651,0-10.432,1.223-14.344,3.667c-3.912,2.445-6.792,6.385-8.639,11.817l-10.595-6.52c2.172-6.085,6.194-11.003,12.062-14.752
		c5.868-3.749,13.147-5.623,21.842-5.623c5.868,0,11.191,1.006,15.974,3.016c4.78,2.012,8.558,5.053,11.329,9.128
		s4.156,9.318,4.156,15.729v39.446c0,3.911,2.063,5.867,6.194,5.867c2.063,0,4.075-0.27,6.031-0.814l-0.652,10.269
		c-2.175,1.085-5,1.63-8.476,1.63c-3.153,0-5.978-0.598-8.476-1.793c-2.501-1.194-4.457-3.016-5.868-5.46
		c-1.414-2.445-2.119-5.515-2.119-9.21v-1.63l3.26,0.489c-1.304,4.238-3.533,7.688-6.683,10.351
		c-3.153,2.664-6.683,4.62-10.595,5.868s-7.771,1.874-11.573,1.874c-4.783,0-9.237-0.814-13.366-2.445
		c-4.131-1.63-7.417-4.1-9.862-7.416c-2.445-3.313-3.667-7.417-3.667-12.307c0-6.084,2.038-11.109,6.113-15.077
		c4.075-3.966,9.752-6.655,17.033-8.068l32.274-6.357v10.758l-26.243,5.379c-5.326,1.088-9.291,2.608-11.899,4.564
		c-2.608,1.956-3.912,4.674-3.912,8.149c0,3.37,1.33,6.113,3.994,8.231c2.661,2.119,6.438,3.179,11.328,3.179
		c3.15,0,6.166-0.407,9.047-1.223c2.878-0.814,5.46-2.063,7.742-3.749c2.282-1.683,4.075-3.802,5.379-6.356
		c1.304-2.552,1.956-5.567,1.956-9.047V798.555z"/>
	<path fill="#646F76" d="M526.536,768.074c5.649,0,10.62,0.871,14.915,2.607c4.291,1.74,8.012,4.238,11.165,7.498
		c3.15,3.261,5.705,7.119,7.661,11.573l-12.388,5.868c-1.74-5.216-4.376-9.21-7.906-11.98c-3.532-2.771-8.124-4.156-13.773-4.156
		c-5.435,0-10.105,1.223-14.018,3.667c-3.912,2.445-6.902,5.978-8.965,10.596c-2.065,4.619-3.098,10.188-3.098,16.707
		c0,6.413,1.032,11.955,3.098,16.626c2.063,4.674,5.053,8.231,8.965,10.677c3.912,2.444,8.583,3.667,14.018,3.667
		c4.238,0,7.906-0.651,11.003-1.956c3.097-1.304,5.648-3.204,7.661-5.705c2.009-2.498,3.395-5.542,4.156-9.128l12.062,4.238
		c-1.849,5-4.375,9.291-7.579,12.877c-3.206,3.586-7.065,6.332-11.573,8.231c-4.51,1.9-9.645,2.853-15.403,2.853
		c-7.607,0-14.4-1.684-20.375-5.053c-5.978-3.367-10.651-8.231-14.018-14.589c-3.37-6.356-5.054-13.937-5.054-22.738
		s1.684-16.382,5.054-22.738c3.366-6.357,8.04-11.219,14.018-14.589C512.136,769.76,518.929,768.074,526.536,768.074z"/>
	<path fill="#646F76" d="M617.816,768.074c7.714,0,14.532,1.686,20.456,5.053c5.922,3.37,10.567,8.231,13.937,14.589
		c3.367,6.356,5.053,13.937,5.053,22.738s-1.686,16.382-5.053,22.738c-3.369,6.357-8.015,11.222-13.937,14.589
		c-5.924,3.369-12.742,5.053-20.456,5.053c-7.607,0-14.4-1.684-20.375-5.053c-5.978-3.367-10.651-8.231-14.019-14.589
		c-3.369-6.356-5.053-13.937-5.053-22.738s1.684-16.382,5.053-22.738c3.367-6.357,8.041-11.219,14.019-14.589
		C603.416,769.76,610.209,768.074,617.816,768.074z M617.816,779.321c-5.542,0-10.27,1.25-14.182,3.749
		c-3.912,2.501-6.928,6.059-9.046,10.677c-2.119,4.619-3.179,10.188-3.179,16.707c0,6.413,1.06,11.955,3.179,16.626
		c2.118,4.674,5.134,8.26,9.046,10.758c3.912,2.501,8.64,3.749,14.182,3.749s10.269-1.248,14.181-3.749
		c3.912-2.498,6.928-6.084,9.047-10.758c2.118-4.671,3.178-10.213,3.178-16.626c0-6.52-1.06-12.088-3.178-16.707
		c-2.119-4.618-5.135-8.176-9.047-10.677C628.085,780.571,623.358,779.321,617.816,779.321z"/>
	<path fill="#646F76" d="M729.309,769.704v11.247h-59.006v-11.247H729.309z M699.643,746.558v82.152
		c0,4.021,1.142,7.009,3.424,8.965c2.281,1.956,5.216,2.935,8.802,2.935c3.15,0,5.868-0.543,8.149-1.63
		c2.282-1.085,4.346-2.553,6.194-4.401l4.564,10.921c-2.501,2.282-5.461,4.075-8.884,5.379s-7.363,1.956-11.817,1.956
		c-4.131,0-7.987-0.733-11.573-2.2s-6.438-3.803-8.558-7.009c-2.119-3.204-3.234-7.417-3.342-12.633v-80.848L699.643,746.558z"/>
	<path fill="#646F76" d="M787.173,769.704v11.247h-59.006v-11.247H787.173z M757.507,746.558v82.152
		c0,4.021,1.142,7.009,3.424,8.965c2.281,1.956,5.216,2.935,8.802,2.935c3.15,0,5.868-0.543,8.149-1.63
		c2.282-1.085,4.346-2.553,6.194-4.401l4.564,10.921c-2.501,2.282-5.461,4.075-8.884,5.379s-7.363,1.956-11.817,1.956
		c-4.131,0-7.987-0.733-11.573-2.2s-6.438-3.803-8.558-7.009c-2.119-3.204-3.234-7.417-3.342-12.633v-80.848L757.507,746.558z"/>
	<path fill="#646F76" d="M854.165,798.555c0-6.084-1.63-10.783-4.89-14.099c-3.26-3.313-7.88-4.972-13.855-4.972
		c-5.651,0-10.432,1.223-14.344,3.667c-3.912,2.445-6.793,6.385-8.639,11.817l-10.596-6.52c2.173-6.085,6.194-11.003,12.063-14.752
		s13.146-5.623,21.842-5.623c5.868,0,11.191,1.006,15.974,3.016c4.781,2.012,8.558,5.053,11.329,9.128
		c2.771,4.075,4.156,9.318,4.156,15.729v39.446c0,3.911,2.063,5.867,6.194,5.867c2.063,0,4.075-0.27,6.03-0.814l-0.651,10.269
		c-2.175,1.085-5,1.63-8.477,1.63c-3.152,0-5.978-0.598-8.476-1.793c-2.501-1.194-4.457-3.016-5.868-5.46
		c-1.413-2.445-2.119-5.515-2.119-9.21v-1.63l3.261,0.489c-1.305,4.238-3.533,7.688-6.684,10.351
		c-3.153,2.664-6.683,4.62-10.595,5.868s-7.771,1.874-11.573,1.874c-4.783,0-9.237-0.814-13.366-2.445
		c-4.131-1.63-7.416-4.1-9.861-7.416c-2.445-3.313-3.667-7.417-3.667-12.307c0-6.084,2.037-11.109,6.112-15.077
		c4.075-3.966,9.752-6.655,17.033-8.068l32.274-6.357v10.758L830.53,817.3c-5.325,1.088-9.291,2.608-11.899,4.564
		c-2.607,1.956-3.912,4.674-3.912,8.149c0,3.37,1.33,6.113,3.994,8.231c2.661,2.119,6.438,3.179,11.328,3.179
		c3.15,0,6.166-0.407,9.047-1.223c2.878-0.814,5.46-2.063,7.742-3.749c2.282-1.683,4.075-3.802,5.379-6.356
		c1.304-2.552,1.956-5.567,1.956-9.047V798.555z"/>
</g>
<g>
</g>
<g>
</g>
<g>
</g>
<g>
</g>
<g>
</g>
<g>
</g>
<g>
</g>
<g>
</g>
<g>
</g>
<g>
</g>
<g>
</g>
<g>
</g>
<g>
</g>
<g>
</g>
<g>
</g>
</svg>
